<svg xmlns="http://www.w3.org/2000/svg" viewBox="0 0 40 40" width="40" height="40">
	<style>
		tspan { white-space:pre }
		.shp0 { fill: #ffffff } 
	</style>
	<g id="Layer">
		<path id="Layer" class="shp0" d="M28 40L11.8 40C8.5 40 5.9 37.3 5.9 34.1L5.9 16C5.9 15.4 6.3 15 6.9 15C7.5 15 7.9 15.4 7.9 16L7.9 34.1C7.9 36.3 9.7 38 11.8 38L28 38C30.2 38 31.9 36.2 31.9 34.1L31.9 16C31.9 15.4 32.3 15 32.9 15C33.5 15 33.9 15.4 33.9 16L33.9 34.1C33.9 37.3 31.2 40 28 40Z" />
	</g>
	<g id="Layer">
		<path id="Layer" fill-rule="evenodd" class="shp0" d="M37.5 8.9C37.5 11.2 35.7 13 33.4 13L6.5 13C4.2 13 2.4 11.3 2.4 9C2.4 6.7 4.2 4.9 6.5 4.9L14.1 4.9C14.6 2.1 17 0 19.9 0C22.8 0 25.2 2.1 25.7 4.9L33.3 4.9C35.6 4.9 37.5 6.6 37.5 8.9ZM16.1 4.9L23.6 4.9C23.2 3.2 21.7 2 19.9 2C18.1 2 16.6 3.2 16.1 4.9ZM35.5 8.9C35.5 7.7 34.5 6.8 33.4 6.8L6.5 6.8C5.3 6.8 4.4 7.8 4.4 8.9C4.4 10.1 5.4 11 6.5 11L33.3 11C34.5 11 35.4 10.1 35.5 8.9Z" />
	</g>
	<g id="Layer">
		<path id="Layer" class="shp0" d="M12.9 35.1C12.3 35.1 11.9 34.7 11.9 34.1L11.9 17.4C11.9 16.8 12.3 16.4 12.9 16.4C13.5 16.4 13.9 16.8 13.9 17.4L13.9 34.1C13.9 34.6 13.4 35.1 12.9 35.1Z" />
	</g>
	<g id="Layer">
		<path id="Layer" class="shp0" d="M26.9 35.1C26.3 35.1 25.9 34.7 25.9 34.1L25.9 17.4C25.9 16.8 26.3 16.4 26.9 16.4C27.5 16.4 27.9 16.8 27.9 17.4L27.9 34.1C27.9 34.6 27.4 35.1 26.9 35.1Z" />
	</g>
	<g id="Layer">
		<path id="Layer" class="shp0" d="M19.9 35.1C19.3 35.1 18.9 34.7 18.9 34.1L18.9 17.4C18.9 16.8 19.3 16.4 19.9 16.4C20.5 16.4 20.9 16.8 20.9 17.4L20.9 34.1C20.9 34.6 20.4 35.1 19.9 35.1Z" />
	</g>
</svg>