<svg xmlns="http://www.w3.org/2000/svg" viewBox="0 0 792 792" width="50" height="50">
	<style>
		tspan { white-space:pre }
		.shp0 { fill: #000000 } 
	</style>
	<g id="Layer">
		<g id="Layer">
			<path id="Layer" class="shp0" d="M216 432L576 432L576 468L216 468L216 432Z" />
			<path id="Layer" class="shp0" d="M216 540L576 540L576 576L216 576L216 540Z" />
			<path id="Layer" class="shp0" d="M216 108L432 108L432 144L216 144L216 108Z" />
			<path id="Layer" class="shp0" d="M216 648L576 648L576 684L216 684L216 648Z" />
			<path id="Layer" class="shp0" d="M216 324L576 324L576 360L216 360L216 324Z" />
			<path id="Layer" fill-rule="evenodd" class="shp0" d="M125.46 792C125.46 792 108 792 108 774.36L108 17.6C108 0 125.46 0 125.46 0L526.9 0L684 158.4L684 774.4C684 792 666.54 792 666.54 792L125.46 792ZM144 756L648 756L648 180L540 180C540 180 504 180 504 144L504 36L144 36L144 756Z" />
			<path id="Layer" class="shp0" d="M216 216L576 216L576 252L216 252L216 216Z" />
		</g>
	</g>
	<g id="Layer">
	</g>
	<g id="Layer">
	</g>
	<g id="Layer">
	</g>
	<g id="Layer">
	</g>
	<g id="Layer">
	</g>
	<g id="Layer">
	</g>
	<g id="Layer">
	</g>
	<g id="Layer">
	</g>
	<g id="Layer">
	</g>
	<g id="Layer">
	</g>
	<g id="Layer">
	</g>
	<g id="Layer">
	</g>
	<g id="Layer">
	</g>
	<g id="Layer">
	</g>
	<g id="Layer">
	</g>
</svg>